PathFileType	4	(X/Y/Z)	Walk5.trc
DataRate	CameraRate	NumFrames	NumMarkers	Units	OrigDataRate	OrigDataStartFrame	OrigNumFrames
200.000000	200.000000	7	59	mm	200.000000	411	541
Frame#	Times		LFHD		RFHD		CLAV		STRN		LASI		RASI		RACR1		RUA1		RElbow		RFA1		RWRR		RWRU		RCAR		LACR1		LUA1		LElbow		LFA1		LWRR		LWRU		LCAR		RTH3		RTH2		RMFC		RTB1		RTB3		RTB2		RTB4		LTH1		LTH3		LTH2		LMFC		LTB1		LTB2		LTB4		LMT1		RTH4		RToe		RMT1		LTH4		RTH1		RLFC		RElbowM		RMMAL		LMT5		RBHD		LTB3		RCAL		LToe		LLFC		RBack		RPSI		C7		LMMAL		T10		LPSI		LLMAL		LCAL		LBHD		LElbowM
			X1	Y1	Z1	X2	Y2	Z2	X3	Y3	Z3	X4	Y4	Z4	X5	Y5	Z5	X6	Y6	Z6	X7	Y7	Z7	X8	Y8	Z8	X9	Y9	Z9	X10	Y10	Z10	X11	Y11	Z11	X12	Y12	Z12	X13	Y13	Z13	X14	Y14	Z14	X15	Y15	Z15	X16	Y16	Z16	X17	Y17	Z17	X18	Y18	Z18	X19	Y19	Z19	X20	Y20	Z20	X21	Y21	Z21	X22	Y22	Z22	X23	Y23	Z23	X24	Y24	Z24	X25	Y25	Z25	X26	Y26	Z26	X27	Y27	Z27	X28	Y28	Z28	X29	Y29	Z29	X30	Y30	Z30	X31	Y31	Z31	X32	Y32	Z32	X33	Y33	Z33	X34	Y34	Z34	X35	Y35	Z35	X36	Y36	Z36	X37	Y37	Z37	X38	Y38	Z38	X39	Y39	Z39	X40	Y40	Z40	X41	Y41	Z41	X42	Y42	Z42	X43	Y43	Z43	X44	Y44	Z44	X45	Y45	Z45	X46	Y46	Z46	X47	Y47	Z47	X48	Y48	Z48	X49	Y49	Z49	X50	Y50	Z50	X51	Y51	Z51	X52	Y52	Z52	X53	Y53	Z53	X54	Y54	Z54	X55	Y55	Z55	X56	Y56	Z56	X57	Y57	Z57	X58	Y58	Z58	X59	Y59	Z59

411	2.055	819.31	1657.8	92.627	822.68	1652	-6.2769	824.01	1392.1	57.983	886.04	1231.5	56.73	774.19	979.82	-125.96	762.56	981.13	242.93	700.1	1477.2	222.41	686.82	1314	346.06	719.77	1176.4	410.37	803.26	1052.1	416.39	868.03	956.96	339.74	861.89	954.74	421.95	920.79	887.76	384	713.81	1465.2	-125.85	646.84	1306	-216.79	596.95	1150.2	-268.34	590.01	1010.2	-284.1	616.98	877.55	-229.56	567.1	871.43	-285.21	604.33	789.18	-262.29	623.37	600.52	224.4	687.88	683.07	226.95	581.55	497.4	54.527	616.11	358.23	128.97	551.1	199.22	105.6	565.65	278.39	176.23	582.76	278.44	117.34	766.91	757.75	-159.38	836.8	602.3	-134.28	851.95	706.3	-128.81	877.85	521.24	26.396	959.54	439.3	-82.253	955.82	341.47	-118.7	989.24	360.98	-69.673	1158.3	127.37	-60.826	630.48	684.6	240.13	639.56	28.37	111.86	591.12	26.032	76.637	801.24	680.71	-149.42	636.17	769.69	256.18	588.08	486.41	209.48	687.78	1091	313.48	470.99	84.322	40.465	1109	78.693	-122.82	674.64	1570.1	-19.815	1012.6	277.58	-58.186	371.66	57.96	78.219	1191.5	149.98	-105.82	847.61	522.32	-129.32	562.27	1356.1	162.3	510.75	1034.6	73.35	632.67	1477.5	52.456	1025.9	117.76	24.692	564.16	1163.7	41.558	527.39	1029.2	-8.1851	994.39	94.474	-54.966	972.32	46.53	7.3643	685.24	1584.3	129.69	528.09	1106.8	-172.41
412	2.06	825.81	1656.6	91.673	829.19	1650.7	-7.223	830.53	1390.7	57.463	892.53	1230.2	56.483	780.92	978.12	-126.13	767.99	980.14	243.28	706.52	1476.2	221.59	693.74	1313.1	345.45	727.04	1175.7	409.87	811.09	1051.9	415.69	876.13	957.08	338.87	870.27	954.87	421.11	929.4	888.2	382.98	720.65	1464	-126.51	652.9	1305.1	-217.31	602.11	1149.5	-268.57	594.43	1009.5	-284.19	620.7	876.72	-229.54	570.75	870.82	-285.1	607.37	788.31	-262.04	626.64	599.94	224.32	691.71	682.07	227.01	584.79	496.97	54.351	618.1	357.52	129	552.11	198.91	105.57	566.94	278.05	176.15	584.26	277.93	117.33	773.46	756.23	-159.14	843.48	600.96	-133.49	858.58	704.99	-128.49	884.83	520.29	27.125	967.67	439.25	-81.777	965.08	341.26	-117.98	998.5	361.33	-69.16	1170.9	130.3	-60.258	634.31	683.99	240.04	639.64	28.359	112.02	591.2	26.051	76.696	807.87	679.28	-148.92	640.51	769.05	256.09	590.63	486.01	209.32	695.05	1090.1	313.17	471.4	84.517	40.26	1122.1	80.637	-122.05	681.19	1568.7	-20.662	1023.1	278.25	-57.577	371.83	58.539	77.806	1203.6	153.38	-105.28	854.6	520.94	-128.55	568.71	1355	161.41	517.02	1033.6	72.243	639.22	1476.3	51.646	1038.9	118.73	25.645	570.52	1162.5	40.582	533.92	1027.9	-9.1449	1007.4	94.826	-53.816	986.28	46.588	8.7314	691.68	1583.1	128.8	533.33	1106.5	-172.44
413	2.065	832.32	1655.4	90.665	835.72	1649.3	-8.2217	837.08	1389.4	56.908	899.07	1228.8	56.213	787.7	976.41	-126.28	773.51	979.16	243.57	712.97	1475.1	220.74	700.67	1312.2	344.81	734.29	1175	409.32	818.88	1051.6	414.95	884.16	957.19	337.98	878.57	954.97	420.24	937.93	888.61	381.93	727.52	1462.7	-127.22	659	1304.2	-217.86	607.34	1148.7	-268.83	598.94	1008.7	-284.3	624.53	875.85	-229.52	574.52	870.17	-285	610.52	787.42	-261.79	629.95	599.37	224.25	695.57	681.06	227.08	588.07	496.55	54.17	620.11	356.81	129.05	553.15	198.63	105.53	568.24	277.74	176.06	585.79	277.44	117.32	780.11	754.77	-158.91	850.32	599.69	-132.73	865.33	703.76	-128.14	891.97	519.41	27.798	975.77	439.1	-81.307	974.14	340.97	-117.25	1007.6	361.53	-68.636	1182.8	132.82	-59.655	638.18	683.38	239.96	639.72	28.347	112.18	591.29	26.068	76.755	814.64	677.93	-148.43	644.88	768.41	256	593.22	485.62	209.16	702.31	1089.2	312.82	471.82	84.743	40.057	1134.5	82.296	-121.25	687.75	1567.2	-21.557	1033.2	278.76	-56.943	372.01	59.17	77.391	1215.1	156.3	-104.71	861.71	519.61	-127.81	575.18	1353.9	160.48	523.33	1032.5	71.159	645.79	1475	50.791	1051.2	119.53	26.625	576.91	1161.2	39.623	540.5	1026.7	-10.088	1019.8	95.072	-52.653	999.43	46.58	10.104	698.13	1581.8	127.87	538.65	1106.2	-172.5
414	2.07	838.84	1654.1	89.606	842.25	1647.9	-9.2725	843.66	1388.1	56.316	905.64	1227.5	55.921	794.52	974.7	-126.42	779.12	978.2	243.79	719.44	1474.1	219.83	707.61	1311.3	344.13	741.52	1174.3	408.74	826.62	1051.4	414.19	892.13	957.28	337.07	886.8	955.06	419.34	946.37	889.01	380.87	734.41	1461.5	-127.97	665.16	1303.2	-218.46	612.66	1148	-269.12	603.56	1008	-284.42	628.46	874.96	-229.5	578.41	869.48	-284.91	613.81	786.5	-261.55	633.31	598.8	224.19	699.48	680.06	227.15	591.4	496.13	53.987	622.15	356.12	129.1	554.2	198.36	105.51	569.55	277.45	175.98	587.34	276.97	117.32	786.91	753.39	-158.68	857.33	598.51	-132.01	872.22	702.62	-127.78	899.26	518.61	28.417	983.86	438.84	-80.831	983.01	340.59	-116.52	1016.5	361.58	-68.089	1194	134.88	-58.994	642.09	682.77	239.87	639.79	28.331	112.35	591.36	26.083	76.813	821.56	676.65	-147.95	649.3	767.77	255.91	595.84	485.25	209	709.56	1088.3	312.42	472.25	85.003	39.859	1146	83.639	-120.41	694.32	1565.8	-22.501	1043	279.06	-56.274	372.2	59.859	76.979	1226	158.7	-104.07	868.98	518.36	-127.13	581.67	1352.8	159.52	529.68	1031.4	70.106	652.39	1473.8	49.889	1062.7	120.11	27.631	583.34	1159.9	38.685	547.11	1025.4	-11.01	1031.3	95.183	-51.486	1011.7	46.475	11.46	704.61	1580.6	126.89	544.04	1105.8	-172.6
415	2.075	845.37	1652.9	88.495	848.79	1646.5	-10.374	850.27	1386.7	55.686	912.25	1226.1	55.603	801.39	972.99	-126.55	784.83	977.26	243.95	725.93	1473	218.88	714.56	1310.5	343.42	748.73	1173.6	408.12	834.3	1051.2	413.39	900.03	957.35	336.14	894.95	955.12	418.43	954.73	889.37	379.79	741.32	1460.2	-128.76	671.36	1302.2	-219.09	618.06	1147.1	-269.45	608.28	1007.1	-284.57	632.5	874.04	-229.48	582.42	868.74	-284.83	617.23	785.54	-261.31	636.72	598.24	224.13	703.44	679.06	227.22	594.77	495.72	53.803	624.23	355.43	129.16	555.28	198.11	105.49	570.89	277.19	175.91	588.93	276.51	117.33	793.84	752.08	-158.45	864.53	597.42	-131.34	879.26	701.57	-127.4	906.72	517.89	28.981	991.94	438.46	-80.333	991.7	340.11	-115.78	1025.2	361.46	-67.504	1204.5	136.45	-58.249	646.06	682.16	239.79	639.87	28.311	112.53	591.44	26.097	76.873	828.65	675.46	-147.48	653.77	767.12	255.82	598.52	484.88	208.84	716.78	1087.4	311.97	472.7	85.3	39.668	1156.7	84.637	-119.53	700.91	1564.3	-23.493	1052.3	279.15	-55.558	372.4	60.611	76.575	1236.1	160.54	-103.35	876.4	517.19	-126.5	588.19	1351.7	158.54	536.08	1030.4	69.089	659	1472.5	48.937	1073.5	120.45	28.664	589.81	1158.6	37.771	553.76	1024.1	-11.907	1042.1	95.135	-50.323	1023.1	46.245	12.78	711.11	1579.4	125.86	549.51	1105.4	-172.75
416	2.08	851.92	1651.6	87.336	855.35	1645.1	-11.525	856.9	1385.4	55.015	918.89	1224.8	55.261	808.31	971.29	-126.66	790.64	976.33	244.03	732.45	1472	217.88	721.52	1309.7	342.67	755.92	1173	407.45	841.93	1051	412.57	907.86	957.41	335.18	903.02	955.17	417.49	963	889.72	378.69	748.24	1458.9	-129.61	677.62	1301.1	-219.76	623.54	1146.3	-269.81	613.1	1006.3	-284.74	636.66	873.08	-229.46	586.55	867.95	-284.77	620.78	784.55	-261.07	640.21	597.68	224.07	707.46	678.06	227.29	598.2	495.31	53.621	626.36	354.76	129.23	556.4	197.89	105.48	572.27	276.96	175.84	590.56	276.07	117.34	800.93	750.85	-158.23	871.92	596.43	-130.71	886.45	700.62	-127.01	914.34	517.23	29.493	1000	437.95	-79.802	1000.2	339.52	-115.03	1033.7	361.15	-66.87	1214.2	137.5	-57.397	650.08	681.55	239.71	639.94	28.286	112.71	591.51	26.112	76.933	835.9	674.36	-147.03	658.31	766.47	255.73	601.27	484.52	208.67	723.98	1086.6	311.48	473.16	85.638	39.487	1166.7	85.27	-118.58	707.52	1562.8	-24.533	1061.3	279.01	-54.786	372.61	61.432	76.186	1245.7	161.81	-102.52	883.99	516.09	-125.93	594.73	1350.6	157.52	542.53	1029.3	68.111	665.63	1471.3	47.934	1083.5	120.51	29.724	596.32	1157.3	36.882	560.45	1022.8	-12.774	1052.2	94.91	-49.172	1033.6	45.869	14.047	717.63	1578.1	124.79	555.05	1104.9	-172.95
417	2.085	858.47	1650.4	86.129	861.92	1643.7	-12.723	863.56	1384.1	54.3	925.56	1223.4	54.891	815.3	969.6	-126.76	796.53	975.42	244.04	738.98	1471	216.83	728.47	1308.9	341.87	763.07	1172.3	406.75	849.51	1050.8	411.73	915.62	957.46	334.22	911.01	955.2	416.54	971.17	890.04	377.58	755.19	1457.5	-130.5	683.93	1300	-220.47	629.12	1145.3	-270.21	618.03	1005.3	-284.94	640.93	872.08	-229.45	590.81	867.12	-284.72	624.48	783.53	-260.83	643.78	597.12	224.02	711.54	677.07	227.36	601.7	494.89	53.443	628.54	354.09	129.3	557.54	197.7	105.47	573.7	276.75	175.78	592.24	275.64	117.37	808.17	749.71	-158.02	879.5	595.53	-130.13	893.8	699.77	-126.59	922.09	516.63	29.955	1008.1	437.33	-79.23	1008.6	338.83	-114.26	1042.1	360.67	-66.178	1223.2	138.03	-56.418	654.18	680.94	239.63	640.01	28.256	112.89	591.58	26.127	76.993	843.32	673.35	-146.59	662.9	765.82	255.64	604.08	484.18	208.51	731.15	1085.8	310.95	473.63	86.02	39.32	1175.8	85.525	-117.56	714.14	1561.3	-25.623	1069.9	278.63	-53.952	372.83	62.33	75.818	1254.6	162.49	-101.53	891.74	515.09	-125.42	601.3	1349.5	156.48	549.02	1028.1	67.175	672.28	1470	46.879	1092.7	120.28	30.811	602.88	1156	36.02	567.17	1021.5	-13.607	1061.4	94.493	-48.041	1043.1	45.333	15.245	724.17	1576.9	123.66	560.67	1104.4	-173.19
